<svg xmlns="http://www.w3.org/2000/svg" width="1200" height="630" viewBox="0 0 1200 630" role="img" aria-labelledby="title desc">
  <title id="title">NKIS Works</title>
  <desc id="desc">Focused mobile software from an independent studio in Japan.</desc>
  <defs>
    <linearGradient id="background" x1="0" y1="0" x2="1" y2="1">
      <stop stop-color="#102b24"/>
      <stop offset="1" stop-color="#071713"/>
    </linearGradient>
    <linearGradient id="accent" x1="0" y1="0" x2="1" y2="1">
      <stop stop-color="#d9ff67"/>
      <stop offset="1" stop-color="#8fd5bb"/>
    </linearGradient>
    <pattern id="grid" width="36" height="36" patternUnits="userSpaceOnUse">
      <path d="M36 0H0V36" fill="none" stroke="#d9ff67" stroke-opacity=".055"/>
    </pattern>
    <filter id="shadow" x="-20%" y="-20%" width="140%" height="140%">
      <feDropShadow dx="0" dy="24" stdDeviation="24" flood-color="#000" flood-opacity=".22"/>
    </filter>
  </defs>
  <rect width="1200" height="630" fill="url(#background)"/>
  <rect width="1200" height="630" fill="url(#grid)"/>
  <circle cx="1115" cy="-36" r="250" fill="#d9ff67" opacity=".08"/>
  <circle cx="90" cy="680" r="260" fill="#8fd5bb" opacity=".08"/>

  <g transform="translate(76 68)">
    <rect width="54" height="54" rx="17" fill="url(#accent)"/>
    <path d="M16 38V16h6l16 15V16h6v22h-6L22 23v15z" fill="#102b24"/>
    <text x="74" y="37" fill="#f9f8ef" font-family="Avenir Next, Helvetica, sans-serif" font-size="29" font-weight="800" letter-spacing="2">NKIS WORKS</text>
  </g>

  <g transform="translate(76 198)">
    <text fill="#d9ff67" font-family="Avenir Next, Helvetica, sans-serif" font-size="16" font-weight="800" letter-spacing="4">INDEPENDENT SOFTWARE STUDIO · JAPAN</text>
    <text y="78" fill="#f9f8ef" font-family="Avenir Next Condensed, Helvetica, sans-serif" font-size="70" font-weight="800" letter-spacing="-2">Focused software.</text>
    <text y="151" fill="#f9f8ef" font-family="Avenir Next Condensed, Helvetica, sans-serif" font-size="70" font-weight="800" letter-spacing="-2">Clear purpose.</text>
    <text y="207" fill="#b9cec7" font-family="Avenir Next, Helvetica, sans-serif" font-size="22" font-weight="500">Practical mobile tools, built with care.</text>
  </g>

  <g transform="translate(788 156)" filter="url(#shadow)">
    <rect width="334" height="138" rx="24" fill="#fffdf7"/>
    <rect x="24" y="24" width="42" height="42" rx="13" fill="#df4d2f"/>
    <path d="M35 45h20M45 35v20" stroke="#fff" stroke-width="4" stroke-linecap="round"/>
    <text x="84" y="52" fill="#14221e" font-family="Avenir Next, Helvetica, sans-serif" font-size="24" font-weight="800">Playlist Toolkit</text>
    <text x="24" y="101" fill="#5e6e68" font-family="Avenir Next, Helvetica, sans-serif" font-size="17" font-weight="600">Playlist organization utility</text>
  </g>
  <g transform="translate(788 320)" filter="url(#shadow)">
    <rect width="334" height="138" rx="24" fill="#fffdf7"/>
    <rect x="24" y="24" width="42" height="42" rx="13" fill="#275eff"/>
    <path d="M34 50l7-10 7 6 8-12" fill="none" stroke="#fff" stroke-width="4" stroke-linecap="round" stroke-linejoin="round"/>
    <text x="84" y="52" fill="#14221e" font-family="Avenir Next, Helvetica, sans-serif" font-size="24" font-weight="800">Slarog</text>
    <text x="24" y="101" fill="#5e6e68" font-family="Avenir Next, Helvetica, sans-serif" font-size="17" font-weight="600">Graph recording and review</text>
  </g>

  <text x="76" y="570" fill="#88a39a" font-family="Avenir Next, Helvetica, sans-serif" font-size="17" font-weight="600">nkisworks.com</text>
</svg>
